<svg width="1793" height="2813" viewBox="0 0 1793 2813" fill="none" xmlns="http://www.w3.org/2000/svg">
<g opacity="0.2">
<path d="M50.4738 2778.5L60.0008 2778.5L60.0008 2753L34.5469 2753L34.5469 2762.59L50.4738 2762.59L50.4738 2778.5Z" fill="#FFCF2D"/>
<path d="M33.1613 2795.71L42.7611 2795.71L42.7611 2770.29L17.2344 2770.29L17.2344 2779.8L33.1613 2779.8L33.1613 2795.71Z" fill="#FFCF2D"/>
<path d="M15.9269 2813L25.5267 2813L25.5267 2787.5L0 2787.5L-3.65458e-07 2797.09L15.9269 2797.09L15.9269 2813Z" fill="#FFCF2D"/>
</g>
<g opacity="0.12" clip-path="url(#clip0_2516_325)">
<path d="M1772.08 1845C1705.15 1845 1651 1899.15 1651 1966.08C1651 2032.85 1705.15 2087.17 1772.08 2087.17C1838.85 2087.17 1893.17 2033.02 1893.17 1966.08C1893 1899.15 1838.85 1845 1772.08 1845ZM1772.08 2079.36C1709.47 2079.36 1658.81 2028.7 1658.81 1966.08C1658.81 1903.47 1709.47 1852.81 1772.08 1852.81C1834.7 1852.81 1885.36 1903.47 1885.36 1966.08C1885.36 2028.53 1834.53 2079.36 1772.08 2079.36Z" fill="#FFCF2D"/>
<path d="M1772.08 1871.08C1719.76 1871.08 1677.24 1913.6 1677.24 1965.92C1677.24 2018.24 1719.76 2060.76 1772.08 2060.76C1824.4 2060.76 1866.92 2018.4 1866.92 1966.08C1866.92 1913.6 1824.4 1871.08 1772.08 1871.08ZM1772.08 2046.31C1727.74 2046.31 1691.69 2010.26 1691.69 1965.92C1691.69 1921.57 1727.74 1885.53 1772.08 1885.53C1816.43 1885.53 1852.47 1921.57 1852.47 1965.92C1852.47 2010.26 1816.43 2046.31 1772.08 2046.31Z" fill="#FFCF2D"/>
</g>
<path d="M20.8804 1515.7C20.8804 1516.98 20.0489 1517.93 18.9402 1517.93C17.8315 1517.93 17 1516.98 17 1515.7C17 1514.43 17.8315 1513.48 18.9402 1513.48C20.0489 1513.48 20.8804 1514.54 20.8804 1515.7Z" fill="#FFCF2D"/>
<path d="M37.4185 1515.7C37.4185 1516.98 36.587 1517.93 35.4783 1517.93C34.3696 1517.93 33.5381 1516.98 33.5381 1515.7C33.5381 1514.43 34.3696 1513.48 35.4783 1513.48C36.4946 1513.48 37.4185 1514.54 37.4185 1515.7Z" fill="#FFCF2D"/>
<path d="M53.8643 1515.7C53.8643 1516.98 53.0328 1517.93 51.9241 1517.93C50.8154 1517.93 49.9839 1516.98 49.9839 1515.7C49.9839 1514.43 50.8154 1513.48 51.9241 1513.48C53.0328 1513.48 53.8643 1514.54 53.8643 1515.7Z" fill="#FFCF2D"/>
<path d="M70.4024 1515.7C70.4024 1516.98 69.5709 1517.93 68.4622 1517.93C67.3535 1517.93 66.522 1516.98 66.522 1515.7C66.522 1514.43 67.3535 1513.48 68.4622 1513.48C69.5709 1513.48 70.4024 1514.54 70.4024 1515.7Z" fill="#FFCF2D"/>
<path d="M86.94 1515.7C86.94 1516.98 86.1085 1517.93 84.9998 1517.93C83.8911 1517.93 83.0596 1516.98 83.0596 1515.7C83.0596 1514.43 83.8911 1513.48 84.9998 1513.48C86.0161 1513.48 86.94 1514.54 86.94 1515.7Z" fill="#FFCF2D"/>
<path d="M103.478 1515.7C103.478 1516.98 102.647 1517.93 101.538 1517.93C100.429 1517.93 99.5977 1516.98 99.5977 1515.7C99.5977 1514.43 100.429 1513.48 101.538 1513.48C102.647 1513.48 103.478 1514.54 103.478 1515.7Z" fill="#FFCF2D"/>
<path d="M119.924 1515.7C119.924 1516.98 119.092 1517.93 117.984 1517.93C116.875 1517.93 116.043 1516.98 116.043 1515.7C116.043 1514.43 116.875 1513.48 117.984 1513.48C119.092 1513.48 119.924 1514.54 119.924 1515.7Z" fill="#FFCF2D"/>
<path d="M136.462 1515.7C136.462 1516.98 135.63 1517.93 134.522 1517.93C133.413 1517.93 132.582 1516.98 132.582 1515.7C132.582 1514.43 133.413 1513.48 134.522 1513.48C135.63 1513.48 136.462 1514.54 136.462 1515.7Z" fill="#FFCF2D"/>
<path d="M153 1515.7C153 1516.98 152.169 1517.93 151.06 1517.93C149.951 1517.93 149.12 1516.98 149.12 1515.7C149.12 1514.43 149.951 1513.48 151.06 1513.48C152.076 1513.48 153 1514.54 153 1515.7Z" fill="#FFCF2D"/>
<path d="M20.8804 1531.5C20.8804 1532.77 20.0489 1533.72 18.9402 1533.72C17.8315 1533.72 17 1532.77 17 1531.5C17 1530.23 17.8315 1529.27 18.9402 1529.27C20.0489 1529.27 20.8804 1530.23 20.8804 1531.5Z" fill="#FFCF2D"/>
<path d="M37.4185 1531.5C37.4185 1532.77 36.587 1533.72 35.4783 1533.72C34.3696 1533.72 33.5381 1532.77 33.5381 1531.5C33.5381 1530.23 34.3696 1529.27 35.4783 1529.27C36.4946 1529.27 37.4185 1530.23 37.4185 1531.5Z" fill="#FFCF2D"/>
<path d="M53.8643 1531.5C53.8643 1532.77 53.0328 1533.72 51.9241 1533.72C50.8154 1533.72 49.9839 1532.77 49.9839 1531.5C49.9839 1530.23 50.8154 1529.27 51.9241 1529.27C53.0328 1529.27 53.8643 1530.23 53.8643 1531.5Z" fill="#FFCF2D"/>
<path d="M70.4024 1531.5C70.4024 1532.77 69.5709 1533.72 68.4622 1533.72C67.3535 1533.72 66.522 1532.77 66.522 1531.5C66.522 1530.23 67.3535 1529.27 68.4622 1529.27C69.5709 1529.27 70.4024 1530.23 70.4024 1531.5Z" fill="#FFCF2D"/>
<path d="M86.94 1531.5C86.94 1532.77 86.1085 1533.72 84.9998 1533.72C83.8911 1533.72 83.0596 1532.77 83.0596 1531.5C83.0596 1530.23 83.8911 1529.27 84.9998 1529.27C86.0161 1529.27 86.94 1530.23 86.94 1531.5Z" fill="#FFCF2D"/>
<path d="M103.478 1531.5C103.478 1532.77 102.647 1533.72 101.538 1533.72C100.429 1533.72 99.5977 1532.77 99.5977 1531.5C99.5977 1530.23 100.429 1529.27 101.538 1529.27C102.647 1529.27 103.478 1530.23 103.478 1531.5Z" fill="#FFCF2D"/>
<path d="M119.924 1531.5C119.924 1532.77 119.092 1533.72 117.984 1533.72C116.875 1533.72 116.043 1532.77 116.043 1531.5C116.043 1530.23 116.875 1529.27 117.984 1529.27C119.092 1529.27 119.924 1530.23 119.924 1531.5Z" fill="#FFCF2D"/>
<path d="M136.462 1531.5C136.462 1532.77 135.63 1533.72 134.522 1533.72C133.413 1533.72 132.582 1532.77 132.582 1531.5C132.582 1530.23 133.413 1529.27 134.522 1529.27C135.63 1529.27 136.462 1530.23 136.462 1531.5Z" fill="#FFCF2D"/>
<path d="M153 1531.5C153 1532.77 152.169 1533.72 151.06 1533.72C149.951 1533.72 149.12 1532.77 149.12 1531.5C149.12 1530.23 149.951 1529.27 151.06 1529.27C152.076 1529.27 153 1530.23 153 1531.5Z" fill="#FFCF2D"/>
<path d="M20.8804 1484.23C20.8804 1485.5 20.0489 1486.45 18.9402 1486.45C17.8315 1486.45 17 1485.5 17 1484.23C17 1482.95 17.8315 1482 18.9402 1482C20.0489 1482 20.8804 1482.95 20.8804 1484.23Z" fill="#FFCF2D"/>
<path d="M37.4185 1484.23C37.4185 1485.5 36.587 1486.45 35.4783 1486.45C34.3696 1486.45 33.5381 1485.5 33.5381 1484.23C33.5381 1482.95 34.3696 1482 35.4783 1482C36.4946 1482 37.4185 1482.95 37.4185 1484.23Z" fill="#FFCF2D"/>
<path d="M53.8643 1484.23C53.8643 1485.5 53.0328 1486.45 51.9241 1486.45C50.8154 1486.45 49.9839 1485.5 49.9839 1484.23C49.9839 1482.95 50.9078 1482 51.9241 1482C53.0328 1482 53.8643 1482.95 53.8643 1484.23Z" fill="#FFCF2D"/>
<path d="M70.4024 1484.23C70.4024 1485.5 69.5709 1486.45 68.4622 1486.45C67.3535 1486.45 66.522 1485.5 66.522 1484.23C66.522 1482.95 67.4459 1482 68.4622 1482C69.4785 1482 70.4024 1482.95 70.4024 1484.23Z" fill="#FFCF2D"/>
<path d="M86.94 1484.23C86.94 1485.5 86.1085 1486.45 84.9998 1486.45C83.8911 1486.45 83.0596 1485.5 83.0596 1484.23C83.0596 1482.95 83.8911 1482 84.9998 1482C86.0161 1482 86.94 1482.95 86.94 1484.23Z" fill="#FFCF2D"/>
<path d="M103.478 1484.23C103.478 1485.5 102.647 1486.45 101.538 1486.45C100.429 1486.45 99.5977 1485.5 99.5977 1484.23C99.5977 1482.95 100.429 1482 101.538 1482C102.647 1482 103.478 1482.95 103.478 1484.23Z" fill="#FFCF2D"/>
<path d="M119.924 1484.23C119.924 1485.5 119.092 1486.45 117.984 1486.45C116.875 1486.45 116.043 1485.5 116.043 1484.23C116.043 1482.95 116.875 1482 117.984 1482C119.092 1482 119.924 1482.95 119.924 1484.23Z" fill="#FFCF2D"/>
<path d="M136.462 1484.23C136.462 1485.5 135.63 1486.45 134.522 1486.45C133.413 1486.45 132.582 1485.5 132.582 1484.23C132.582 1482.95 133.413 1482 134.522 1482C135.63 1482 136.462 1482.95 136.462 1484.23Z" fill="#FFCF2D"/>
<path d="M153 1484.23C153 1485.5 152.169 1486.45 151.06 1486.45C149.951 1486.45 149.12 1485.5 149.12 1484.23C149.12 1482.95 149.951 1482 151.06 1482C152.076 1482 153 1482.95 153 1484.23Z" fill="#FFCF2D"/>
<path d="M20.8804 1500.02C20.8804 1501.29 20.0489 1502.24 18.9402 1502.24C17.8315 1502.24 17 1501.18 17 1500.02C17 1498.75 17.8315 1497.79 18.9402 1497.79C20.0489 1497.79 20.8804 1498.75 20.8804 1500.02Z" fill="#FFCF2D"/>
<path d="M37.4185 1500.02C37.4185 1501.29 36.587 1502.24 35.4783 1502.24C34.3696 1502.24 33.5381 1501.29 33.5381 1500.02C33.5381 1498.75 34.3696 1497.79 35.4783 1497.79C36.4946 1497.79 37.4185 1498.75 37.4185 1500.02Z" fill="#FFCF2D"/>
<path d="M53.8643 1500.02C53.8643 1501.29 53.0328 1502.24 51.9241 1502.24C50.8154 1502.24 49.9839 1501.29 49.9839 1500.02C49.9839 1498.75 50.8154 1497.79 51.9241 1497.79C53.0328 1497.79 53.8643 1498.75 53.8643 1500.02Z" fill="#FFCF2D"/>
<path d="M70.4024 1500.02C70.4024 1501.29 69.5709 1502.24 68.4622 1502.24C67.3535 1502.24 66.522 1501.29 66.522 1500.02C66.522 1498.75 67.3535 1497.79 68.4622 1497.79C69.5709 1497.79 70.4024 1498.75 70.4024 1500.02Z" fill="#FFCF2D"/>
<path d="M86.94 1500.02C86.94 1501.29 86.1085 1502.24 84.9998 1502.24C83.8911 1502.24 83.0596 1501.29 83.0596 1500.02C83.0596 1498.75 83.8911 1497.79 84.9998 1497.79C86.0161 1497.79 86.94 1498.75 86.94 1500.02Z" fill="#FFCF2D"/>
<path d="M103.478 1500.02C103.478 1501.29 102.647 1502.24 101.538 1502.24C100.429 1502.24 99.5977 1501.29 99.5977 1500.02C99.5977 1498.75 100.429 1497.79 101.538 1497.79C102.647 1497.79 103.478 1498.75 103.478 1500.02Z" fill="#FFCF2D"/>
<path d="M119.924 1500.02C119.924 1501.29 119.092 1502.24 117.984 1502.24C116.875 1502.24 116.043 1501.29 116.043 1500.02C116.043 1498.75 116.875 1497.79 117.984 1497.79C119.092 1497.79 119.924 1498.75 119.924 1500.02Z" fill="#FFCF2D"/>
<path d="M136.462 1500.02C136.462 1501.29 135.63 1502.24 134.522 1502.24C133.413 1502.24 132.582 1501.29 132.582 1500.02C132.582 1498.75 133.413 1497.79 134.522 1497.79C135.63 1497.79 136.462 1498.75 136.462 1500.02Z" fill="#FFCF2D"/>
<path d="M153 1500.02C153 1501.29 152.169 1502.24 151.06 1502.24C149.951 1502.24 149.12 1501.29 149.12 1500.02C149.12 1498.75 149.951 1497.79 151.06 1497.79C152.076 1497.79 153 1498.75 153 1500.02Z" fill="#FFCF2D"/>
<path d="M20.8804 1547.18C20.8804 1548.46 20.0489 1549.41 18.9402 1549.41C17.8315 1549.41 17 1548.46 17 1547.18C17 1545.91 17.8315 1544.96 18.9402 1544.96C20.0489 1544.96 20.8804 1546.02 20.8804 1547.18Z" fill="#FFCF2D"/>
<path d="M37.4185 1547.18C37.4185 1548.46 36.587 1549.41 35.4783 1549.41C34.3696 1549.41 33.5381 1548.46 33.5381 1547.18C33.5381 1545.91 34.3696 1544.96 35.4783 1544.96C36.4946 1544.96 37.4185 1546.02 37.4185 1547.18Z" fill="#FFCF2D"/>
<path d="M53.8643 1547.18C53.8643 1548.46 53.0328 1549.41 51.9241 1549.41C50.8154 1549.41 49.9839 1548.46 49.9839 1547.18C49.9839 1545.91 50.8154 1544.96 51.9241 1544.96C53.0328 1544.96 53.8643 1546.02 53.8643 1547.18Z" fill="#FFCF2D"/>
<path d="M70.4024 1547.18C70.4024 1548.46 69.5709 1549.41 68.4622 1549.41C67.3535 1549.41 66.522 1548.46 66.522 1547.18C66.522 1545.91 67.3535 1544.96 68.4622 1544.96C69.5709 1544.96 70.4024 1546.02 70.4024 1547.18Z" fill="#FFCF2D"/>
<path d="M86.94 1547.18C86.94 1548.46 86.1085 1549.41 84.9998 1549.41C83.8911 1549.41 83.0596 1548.46 83.0596 1547.18C83.0596 1545.91 83.8911 1544.96 84.9998 1544.96C86.0161 1544.96 86.94 1546.02 86.94 1547.18Z" fill="#FFCF2D"/>
<path d="M103.478 1547.18C103.478 1548.46 102.647 1549.41 101.538 1549.41C100.429 1549.41 99.5977 1548.46 99.5977 1547.18C99.5977 1545.91 100.429 1544.96 101.538 1544.96C102.647 1544.96 103.478 1546.02 103.478 1547.18Z" fill="#FFCF2D"/>
<path d="M119.924 1547.18C119.924 1548.46 119.092 1549.41 117.984 1549.41C116.875 1549.41 116.043 1548.46 116.043 1547.18C116.043 1545.91 116.875 1544.96 117.984 1544.96C119.092 1544.96 119.924 1546.02 119.924 1547.18Z" fill="#FFCF2D"/>
<path d="M136.462 1547.18C136.462 1548.46 135.63 1549.41 134.522 1549.41C133.413 1549.41 132.582 1548.46 132.582 1547.18C132.582 1545.91 133.413 1544.96 134.522 1544.96C135.63 1544.96 136.462 1546.02 136.462 1547.18Z" fill="#FFCF2D"/>
<path d="M153 1547.18C153 1548.46 152.169 1549.41 151.06 1549.41C149.951 1549.41 149.12 1548.46 149.12 1547.18C149.12 1545.91 149.951 1544.96 151.06 1544.96C152.076 1544.96 153 1546.02 153 1547.18Z" fill="#FFCF2D"/>
<path d="M20.8804 1562.98C20.8804 1564.25 20.0489 1565.2 18.9402 1565.2C17.8315 1565.2 17 1564.25 17 1562.98C17 1561.71 17.8315 1560.75 18.9402 1560.75C20.0489 1560.75 20.8804 1561.71 20.8804 1562.98Z" fill="#FFCF2D"/>
<path d="M37.4185 1562.98C37.4185 1564.25 36.587 1565.2 35.4783 1565.2C34.3696 1565.2 33.5381 1564.25 33.5381 1562.98C33.5381 1561.71 34.3696 1560.75 35.4783 1560.75C36.4946 1560.75 37.4185 1561.71 37.4185 1562.98Z" fill="#FFCF2D"/>
<path d="M53.8643 1562.98C53.8643 1564.25 53.0328 1565.2 51.9241 1565.2C50.8154 1565.2 49.9839 1564.25 49.9839 1562.98C49.9839 1561.71 50.8154 1560.75 51.9241 1560.75C53.0328 1560.75 53.8643 1561.71 53.8643 1562.98Z" fill="#FFCF2D"/>
<path d="M68.4622 1565.2C69.5337 1565.2 70.4024 1564.21 70.4024 1562.98C70.4024 1561.75 69.5337 1560.75 68.4622 1560.75C67.3906 1560.75 66.522 1561.75 66.522 1562.98C66.522 1564.21 67.3906 1565.2 68.4622 1565.2Z" fill="#FFCF2D"/>
<path d="M86.94 1562.98C86.94 1564.25 86.1085 1565.2 84.9998 1565.2C83.8911 1565.2 83.0596 1564.25 83.0596 1562.98C83.0596 1561.71 83.8911 1560.75 84.9998 1560.75C86.0161 1560.75 86.94 1561.71 86.94 1562.98Z" fill="#FFCF2D"/>
<path d="M103.478 1562.98C103.478 1564.25 102.647 1565.2 101.538 1565.2C100.429 1565.2 99.5977 1564.25 99.5977 1562.98C99.5977 1561.71 100.429 1560.75 101.538 1560.75C102.647 1560.75 103.478 1561.71 103.478 1562.98Z" fill="#FFCF2D"/>
<path d="M119.924 1562.98C119.924 1564.25 119.092 1565.2 117.984 1565.2C116.875 1565.2 116.043 1564.25 116.043 1562.98C116.043 1561.71 116.875 1560.75 117.984 1560.75C119.092 1560.75 119.924 1561.71 119.924 1562.98Z" fill="#FFCF2D"/>
<path d="M134.522 1565.2C135.593 1565.2 136.462 1564.21 136.462 1562.98C136.462 1561.75 135.593 1560.75 134.522 1560.75C133.45 1560.75 132.582 1561.75 132.582 1562.98C132.582 1564.21 133.45 1565.2 134.522 1565.2Z" fill="#FFCF2D"/>
<path d="M153 1562.98C153 1564.25 152.169 1565.2 151.06 1565.2C149.951 1565.2 149.12 1564.25 149.12 1562.98C149.12 1561.71 149.951 1560.75 151.06 1560.75C152.076 1560.75 153 1561.71 153 1562.98Z" fill="#FFCF2D"/>
<path d="M20.8804 1578.77C20.8804 1580.04 20.0489 1580.99 18.9402 1580.99C17.8315 1580.99 17 1580.04 17 1578.77C17 1577.5 17.8315 1576.54 18.9402 1576.54C20.0489 1576.54 20.8804 1577.5 20.8804 1578.77Z" fill="#FFCF2D"/>
<path d="M37.4185 1578.77C37.4185 1580.04 36.587 1580.99 35.4783 1580.99C34.3696 1580.99 33.5381 1580.04 33.5381 1578.77C33.5381 1577.5 34.3696 1576.54 35.4783 1576.54C36.4946 1576.54 37.4185 1577.5 37.4185 1578.77Z" fill="#FFCF2D"/>
<path d="M53.8643 1578.77C53.8643 1580.04 53.0328 1580.99 51.9241 1580.99C50.8154 1580.99 49.9839 1580.04 49.9839 1578.77C49.9839 1577.5 50.8154 1576.54 51.9241 1576.54C53.0328 1576.54 53.8643 1577.5 53.8643 1578.77Z" fill="#FFCF2D"/>
<path d="M70.4024 1578.77C70.4024 1580.04 69.5709 1580.99 68.4622 1580.99C67.3535 1580.99 66.522 1580.04 66.522 1578.77C66.522 1577.5 67.3535 1576.54 68.4622 1576.54C69.5709 1576.54 70.4024 1577.5 70.4024 1578.77Z" fill="#FFCF2D"/>
<path d="M86.94 1578.77C86.94 1580.04 86.1085 1580.99 84.9998 1580.99C83.8911 1580.99 83.0596 1580.04 83.0596 1578.77C83.0596 1577.5 83.8911 1576.54 84.9998 1576.54C86.0161 1576.54 86.94 1577.5 86.94 1578.77Z" fill="#FFCF2D"/>
<path d="M103.478 1578.77C103.478 1580.04 102.647 1580.99 101.538 1580.99C100.429 1580.99 99.5977 1580.04 99.5977 1578.77C99.5977 1577.5 100.429 1576.54 101.538 1576.54C102.647 1576.54 103.478 1577.5 103.478 1578.77Z" fill="#FFCF2D"/>
<path d="M119.924 1578.77C119.924 1580.04 119.092 1580.99 117.984 1580.99C116.875 1580.99 116.043 1580.04 116.043 1578.77C116.043 1577.5 116.875 1576.54 117.984 1576.54C119.092 1576.54 119.924 1577.5 119.924 1578.77Z" fill="#FFCF2D"/>
<path d="M136.462 1578.77C136.462 1580.04 135.63 1580.99 134.522 1580.99C133.413 1580.99 132.582 1580.04 132.582 1578.77C132.582 1577.5 133.413 1576.54 134.522 1576.54C135.63 1576.54 136.462 1577.5 136.462 1578.77Z" fill="#FFCF2D"/>
<path d="M153 1578.77C153 1580.04 152.169 1580.99 151.06 1580.99C149.951 1580.99 149.12 1580.04 149.12 1578.77C149.12 1577.5 149.951 1576.54 151.06 1576.54C152.076 1576.54 153 1577.5 153 1578.77Z" fill="#FFCF2D"/>
<path d="M20.8804 1594.46C20.8804 1595.73 20.0489 1596.68 18.9402 1596.68C17.8315 1596.68 17 1595.73 17 1594.46C17 1593.18 17.8315 1592.23 18.9402 1592.23C20.0489 1592.23 20.8804 1593.29 20.8804 1594.46Z" fill="#FFCF2D"/>
<path d="M37.4185 1594.46C37.4185 1595.73 36.587 1596.68 35.4783 1596.68C34.3696 1596.68 33.5381 1595.73 33.5381 1594.46C33.5381 1593.18 34.3696 1592.23 35.4783 1592.23C36.4946 1592.23 37.4185 1593.29 37.4185 1594.46Z" fill="#FFCF2D"/>
<path d="M53.8643 1594.46C53.8643 1595.73 53.0328 1596.68 51.9241 1596.68C50.8154 1596.68 49.9839 1595.73 49.9839 1594.46C49.9839 1593.18 50.8154 1592.23 51.9241 1592.23C53.0328 1592.23 53.8643 1593.29 53.8643 1594.46Z" fill="#FFCF2D"/>
<path d="M70.4024 1594.46C70.4024 1595.73 69.5709 1596.68 68.4622 1596.68C67.3535 1596.68 66.522 1595.73 66.522 1594.46C66.522 1593.18 67.3535 1592.23 68.4622 1592.23C69.5709 1592.23 70.4024 1593.29 70.4024 1594.46Z" fill="#FFCF2D"/>
<path d="M86.94 1594.46C86.94 1595.73 86.1085 1596.68 84.9998 1596.68C83.8911 1596.68 83.0596 1595.73 83.0596 1594.46C83.0596 1593.18 83.8911 1592.23 84.9998 1592.23C86.0161 1592.23 86.94 1593.29 86.94 1594.46Z" fill="#FFCF2D"/>
<path d="M103.478 1594.46C103.478 1595.73 102.647 1596.68 101.538 1596.68C100.429 1596.68 99.5977 1595.73 99.5977 1594.46C99.5977 1593.18 100.429 1592.23 101.538 1592.23C102.647 1592.23 103.478 1593.29 103.478 1594.46Z" fill="#FFCF2D"/>
<path d="M119.924 1594.46C119.924 1595.73 119.092 1596.68 117.984 1596.68C116.875 1596.68 116.043 1595.73 116.043 1594.46C116.043 1593.18 116.875 1592.23 117.984 1592.23C119.092 1592.23 119.924 1593.29 119.924 1594.46Z" fill="#FFCF2D"/>
<path d="M136.462 1594.46C136.462 1595.73 135.63 1596.68 134.522 1596.68C133.413 1596.68 132.582 1595.73 132.582 1594.46C132.582 1593.18 133.413 1592.23 134.522 1592.23C135.63 1592.23 136.462 1593.29 136.462 1594.46Z" fill="#FFCF2D"/>
<path d="M153 1594.46C153 1595.73 152.169 1596.68 151.06 1596.68C149.951 1596.68 149.12 1595.73 149.12 1594.46C149.12 1593.18 149.951 1592.23 151.06 1592.23C152.076 1592.23 153 1593.29 153 1594.46Z" fill="#FFCF2D"/>
<g opacity="0.2">
<path d="M1633.02 154.901C1642.31 149.541 1645.51 137.619 1640.15 128.343C1634.79 119.066 1622.87 115.876 1613.59 121.235L1633.02 154.901Z" fill="#FFCF2D"/>
<path d="M1606.74 170.074C1616.03 164.714 1619.23 152.792 1613.87 143.516C1608.52 134.239 1596.59 131.049 1587.31 136.408L1606.74 170.074Z" fill="#FFCF2D"/>
<path d="M1580.46 185.246C1589.75 179.886 1592.95 167.964 1587.59 158.687C1582.24 149.411 1570.31 146.221 1561.03 151.58L1580.46 185.246Z" fill="#FFCF2D"/>
</g>
<defs>
<clipPath id="clip0_2516_325">
<rect width="242" height="242" fill="white" transform="translate(1651 1845)"/>
</clipPath>
</defs>
</svg>
